<?xml version="1.0" encoding="UTF-8" standalone="no"?>
<svg
   xmlns:dc="http://purl.org/dc/elements/1.1/"
   xmlns:cc="http://creativecommons.org/ns#"
   xmlns:rdf="http://www.w3.org/1999/02/22-rdf-syntax-ns#"
   xmlns:svg="http://www.w3.org/2000/svg"
   xmlns="http://www.w3.org/2000/svg"
   xmlns:sodipodi="http://sodipodi.sourceforge.net/DTD/sodipodi-0.dtd"
   xmlns:inkscape="http://www.inkscape.org/namespaces/inkscape"
   viewBox="-0.2 -1 379 334"
   id="svg2"
   version="1.1"
   inkscape:version="0.48.2 r9819"
   width="100%"
   height="100%"
   sodipodi:docname="divingoctocat.svg"
   inkscape:export-filename="/Users/family/Documents/Mariot/Dev/Projets/Hubdive/hubdive/public/images/divingoctocat.png"
   inkscape:export-xdpi="150"
   inkscape:export-ydpi="150">
  <metadata
     id="metadata24">
    <rdf:RDF>
      <cc:Work
         rdf:about="">
        <dc:format>image/svg+xml</dc:format>
        <dc:type
           rdf:resource="http://purl.org/dc/dcmitype/StillImage" />
        <dc:title />
      </cc:Work>
    </rdf:RDF>
  </metadata>
  <defs
     id="defs22">
    <inkscape:perspective
       id="perspective2447"
       inkscape:persp3d-origin="372.04724 : 350.78739 : 1"
       inkscape:vp_z="744.09448 : 526.18109 : 1"
       inkscape:vp_y="0 : 1000 : 0"
       inkscape:vp_x="0 : 526.18109 : 1"
       sodipodi:type="inkscape:persp3d" />
  </defs>
  <sodipodi:namedview
     pagecolor="#ffffff"
     bordercolor="#666666"
     borderopacity="1"
     objecttolerance="10"
     gridtolerance="10"
     guidetolerance="10"
     inkscape:pageopacity="0"
     inkscape:pageshadow="2"
     inkscape:window-width="1452"
     inkscape:window-height="854"
     id="namedview20"
     showgrid="false"
     inkscape:zoom="5.6526948"
     inkscape:cx="208.63517"
     inkscape:cy="14.730195"
     inkscape:window-x="0"
     inkscape:window-y="0"
     inkscape:window-maximized="0"
     inkscape:current-layer="g3058" />
  <g
     id="g3058"
     transform="translate(78.812728,-108.66628)">
    <rect
       y="82.48748"
       x="136.20026"
       height="7.6732545"
       width="0"
       id="rect3251"
       style="fill:none;stroke:#e30000;stroke-width:0.98400003;stroke-linecap:round;stroke-linejoin:round;stroke-miterlimit:4;stroke-opacity:1;stroke-dasharray:none;stroke-dashoffset:0.23740155" />
    <g
       id="g3016"
       transform="matrix(0.84293775,0,0,0.84293775,17.342934,26.97349)">
      <path
         d="m 296.94,295.43 c 0,20.533 -47.56,37.176 -106.22,37.176 -58.67,0 -106.23,-16.643 -106.23,-37.176 0,-20.533 47.558,-37.18 106.23,-37.18 58.66,0 106.22,16.65 106.22,37.18 z"
         id="puddle"
         transform="translate(-78.812728,108.66628)"
         inkscape:connector-curvature="0"
         style="fill:#9cdaf1" />
      <g
         id="shadow-legs"
         transform="translate(-78.812728,108.66628)"
         style="fill:#7dbbe6">
        <path
           id="path6"
           d="m 161.85,331.22 v -26.5 c 0,-3.422 -0.619,-6.284 -1.653,-8.701 6.853,5.322 7.316,18.695 7.316,18.695 v 17.004 c 6.166,0.481 12.534,0.773 19.053,0.861 l -0.172,-16.92 c -0.944,-23.13 -20.769,-25.961 -20.769,-25.961 -7.245,-1.645 -7.137,1.991 -6.409,4.34 -7.108,-12.122 -26.158,-10.556 -26.158,-10.556 -6.611,2.357 -0.475,6.607 -0.475,6.607 10.387,3.775 11.33,15.105 11.33,15.105 v 23.622 c 5.72,0.98 11.71,1.79 17.94,2.4 z"
           inkscape:connector-curvature="0" />
        <path
           id="path8"
           d="m 245.4,283.48 c 0,0 -19.053,-1.566 -26.16,10.559 0.728,-2.35 0.839,-5.989 -6.408,-4.343 0,0 -19.824,2.832 -20.768,25.961 l -0.174,16.946 c 6.509,-0.025 12.876,-0.254 19.054,-0.671 v -17.219 c 0,0 0.465,-13.373 7.316,-18.695 -1.034,2.417 -1.653,5.278 -1.653,8.701 v 26.775 c 6.214,-0.544 12.211,-1.279 17.937,-2.188 v -24.113 c 0,0 0.944,-11.33 11.33,-15.105 0,-0.01 6.13,-4.26 -0.48,-6.62 z"
           inkscape:connector-curvature="0" />
      </g>
      <path
         d="m 378.18,141.32 0.28,-1.389 c -31.162,-6.231 -63.141,-6.294 -82.487,-5.49 3.178,-11.451 4.134,-24.627 4.134,-39.32 0,-21.073 -7.917,-37.931 -20.77,-50.759 2.246,-7.25 5.246,-23.351 -2.996,-43.963 0,0 -14.541,-4.617 -47.431,17.396 -12.884,-3.22 -26.596,-4.81 -40.328,-4.81 -15.109,0 -30.376,1.924 -44.615,5.83 C 110.027,-4.339 95.044,0.404 95.044,0.404 85.264,24.861 91.311,42.97 93.148,47.467 81.653,59.873 74.635,75.71 74.635,95.126 c 0,14.658 1.669,27.808 5.745,39.237 -19.511,-0.71 -50.323,-0.437 -80.373,5.572 l 0.276,1.389 c 30.231,-6.046 61.237,-6.256 80.629,-5.522 0.898,2.366 1.899,4.661 3.021,6.879 -19.177,0.618 -51.922,3.062 -83.303,11.915 l 0.387,1.36 c 31.629,-8.918 64.658,-11.301 83.649,-11.882 11.458,21.358 34.048,35.152 74.236,39.484 -5.704,3.833 -11.523,10.349 -13.881,21.374 -7.773,3.718 -32.379,12.793 -47.142,-12.599 0,0 -8.264,-15.109 -24.082,-16.292 0,0 -15.344,-0.235 -1.059,9.562 0,0 10.267,4.838 17.351,23.019 0,0 9.241,31.01 53.835,21.061 v 32.032 c 0,0 -0.943,11.33 -11.33,15.105 0,0 -6.137,4.249 0.475,6.606 0,0 28.792,2.361 28.792,-21.238 v -34.929 c 0,0 -1.142,-13.852 5.663,-18.667 v 57.371 c 0,0 -0.47,13.688 -7.551,18.881 0,0 -4.723,8.494 5.663,6.137 0,0 19.824,-2.832 20.769,-25.961 l 0.449,-58.06 h 4.765 l 0.453,58.06 c 0.943,23.129 20.768,25.961 20.768,25.961 10.383,2.357 5.663,-6.137 5.663,-6.137 -7.08,-5.193 -7.551,-18.881 -7.551,-18.881 v -56.876 c 6.801,5.296 5.663,18.171 5.663,18.171 v 34.929 c 0,23.6 28.793,21.238 28.793,21.238 6.606,-2.357 0.474,-6.606 0.474,-6.606 -10.386,-3.775 -11.33,-15.105 -11.33,-15.105 v -45.786 c 0,-17.854 -7.518,-27.309 -14.87,-32.3 42.859,-4.25 63.426,-18.089 72.903,-39.591 18.773,0.516 52.557,2.803 84.873,11.919 l 0.384,-1.36 c -32.131,-9.063 -65.692,-11.408 -84.655,-11.96 0.898,-2.172 1.682,-4.431 2.378,-6.755 19.25,-0.8 51.38,-0.79 82.66,5.46 z"
         id="cat"
         transform="translate(-78.812728,108.66628)"
         inkscape:connector-curvature="0" />
      <path
         d="m 258.19,94.132 c 9.231,8.363 14.631,18.462 14.631,29.343 0,50.804 -37.872,52.181 -84.585,52.181 -46.721,0 -84.589,-7.035 -84.589,-52.181 0,-10.809 5.324,-20.845 14.441,-29.174 15.208,-13.881 40.946,-6.531 70.147,-6.531 29.07,-0.004 54.72,-7.429 69.95,6.357 z"
         id="face"
         transform="translate(-78.812728,108.66628)"
         inkscape:connector-curvature="0"
         style="fill:#f4cbb2" />
      <path
         d="m 160.1,126.06 c 0,13.994 -7.88,25.336 -17.6,25.336 -9.72,0 -17.6,-11.342 -17.6,-25.336 0,-13.992 7.88,-25.33 17.6,-25.33 9.72,0.01 17.6,11.34 17.6,25.33 z m 94.43,0 c 0,13.994 -7.88,25.336 -17.6,25.336 -9.72,0 -17.6,-11.342 -17.6,-25.336 0,-13.992 7.88,-25.33 17.6,-25.33 9.72,0.01 17.6,11.34 17.6,25.33 z"
         id="eyes"
         transform="translate(-78.812728,108.66628)"
         inkscape:connector-curvature="0"
         style="fill:#ffffff" />
      <g
         id="g13"
         transform="translate(-78.812728,108.66628)"
         style="fill:#ad5c51">
        <path
           d="m 154.46,126.38 c 0,9.328 -5.26,16.887 -11.734,16.887 -6.474,0 -11.733,-7.559 -11.733,-16.887 0,-9.331 5.255,-16.894 11.733,-16.894 6.47,0 11.73,7.56 11.73,16.89 z m 94.42,0 c 0,9.328 -5.26,16.887 -11.734,16.887 -6.474,0 -11.733,-7.559 -11.733,-16.887 0,-9.331 5.255,-16.894 11.733,-16.894 6.47,0 11.73,7.56 11.73,16.89 z"
           id="pupils"
           inkscape:connector-curvature="0" />
        <circle
           r="4.401"
           cy="148.56"
           cx="188.5"
           id="nose"
           d="m 192.901,148.56 c 0,2.4306 -1.97039,4.401 -4.401,4.401 -2.43061,0 -4.401,-1.9704 -4.401,-4.401 0,-2.43061 1.97039,-4.401 4.401,-4.401 2.43061,0 4.401,1.97039 4.401,4.401 z"
           sodipodi:cx="188.5"
           sodipodi:cy="148.56"
           sodipodi:rx="4.401"
           sodipodi:ry="4.401" />
        <path
           d="m 178.23,159.69 c -0.26,-0.738 0.128,-1.545 0.861,-1.805 0.737,-0.26 1.546,0.128 1.805,0.861 1.134,3.198 4.167,5.346 7.551,5.346 3.384,0 6.417,-2.147 7.551,-5.346 0.26,-0.738 1.067,-1.121 1.805,-0.861 0.738,0.26 1.121,1.067 0.862,1.805 -1.529,4.324 -5.639,7.229 -10.218,7.229 -4.579,0 -8.68,-2.89 -10.21,-7.22 z"
           id="mouth"
           inkscape:connector-curvature="0" />
      </g>
      <path
         d="m 80.641,179.82 c 0,1.174 -1.376,2.122 -3.07,2.122 -1.693,0 -3.07,-0.948 -3.07,-2.122 0,-1.175 1.377,-2.127 3.07,-2.127 1.694,0 3.07,0.95 3.07,2.13 z m 8.5,4.72 c 0,1.174 -1.376,2.122 -3.07,2.122 -1.693,0 -3.07,-0.948 -3.07,-2.122 0,-1.175 1.377,-2.127 3.07,-2.127 1.694,0 3.07,0.95 3.07,2.13 z m 5.193,6.14 c 0,1.174 -1.376,2.122 -3.07,2.122 -1.693,0 -3.07,-0.948 -3.07,-2.122 0,-1.175 1.377,-2.127 3.07,-2.127 1.694,0 3.07,0.95 3.07,2.13 z m 4.72,7.08 c 0,1.174 -1.376,2.122 -3.07,2.122 -1.693,0 -3.07,-0.948 -3.07,-2.122 0,-1.175 1.377,-2.127 3.07,-2.127 1.694,0 3.07,0.95 3.07,2.13 z m 5.188,6.61 c 0,1.174 -1.376,2.122 -3.07,2.122 -1.693,0 -3.07,-0.948 -3.07,-2.122 0,-1.175 1.377,-2.127 3.07,-2.127 1.694,0 3.07,0.95 3.07,2.13 z m 7.09,5.66 c 0,1.174 -1.376,2.122 -3.07,2.122 -1.693,0 -3.07,-0.948 -3.07,-2.122 0,-1.175 1.377,-2.127 3.07,-2.127 1.694,0 3.07,0.95 3.07,2.13 z m 9.91,3.78 c 0,1.174 -1.376,2.122 -3.07,2.122 -1.693,0 -3.07,-0.948 -3.07,-2.122 0,-1.175 1.377,-2.127 3.07,-2.127 1.694,0 3.07,0.95 3.07,2.13 z m 9.87,0 c 0,1.174 -1.376,2.122 -3.07,2.122 -1.693,0 -3.07,-0.948 -3.07,-2.122 0,-1.175 1.377,-2.127 3.07,-2.127 1.694,0 3.07,0.95 3.07,2.13 z m 10.01,-1.64 c 0,1.174 -1.376,2.122 -3.07,2.122 -1.693,0 -3.07,-0.948 -3.07,-2.122 0,-1.175 1.377,-2.127 3.07,-2.127 1.694,0 3.07,0.95 3.07,2.13 z"
         id="octo"
         transform="translate(-78.812728,108.66628)"
         inkscape:connector-curvature="0"
         style="fill:#c3e4d8" />
      <path
         d="m 69.369,186.12 -3.066,10.683 c 0,0 -0.8,3.861 2.84,4.546 3.8,-0.074 3.486,-3.627 3.223,-4.781 z"
         id="drop"
         transform="translate(-78.812728,108.66628)"
         inkscape:connector-curvature="0"
         style="fill:#9cdaf1" />
      <path
         transform="matrix(1.4288399,0,0,1,208.51988,331.27645)"
         d="m -13.751083,-101.19068 c 0,19.14977 -25.118291,34.673727 -56.103272,34.673727 -30.984985,0 -56.103275,-15.523957 -56.103275,-34.673727 0,-19.14977 25.11829,-34.67373 56.103275,-34.67373 30.984981,0 56.103272,15.52396 56.103272,34.67373 z"
         sodipodi:ry="34.673729"
         sodipodi:rx="56.103271"
         sodipodi:cy="-101.19068"
         sodipodi:cx="-69.854355"
         id="path3832"
         style="opacity:0.4353448;fill:#9cdaf1;fill-opacity:1;stroke:none"
         sodipodi:type="arc" />
      <path
         inkscape:connector-curvature="0"
         style="fill:#ffffff;fill-opacity:1;fill-rule:evenodd;stroke:#9cdaf1;stroke-width:3.48600005999999984;stroke-linecap:butt;stroke-linejoin:miter;stroke-miterlimit:4;stroke-opacity:1;stroke-dasharray:none;stroke-dashoffset:0;marker:none;visibility:visible;display:inline;overflow:visible;enable-background:accumulate"
         d="m 194.87982,296.59074 c -2.63399,4.87747 -6.19076,7.34611 -16.0401,5.77585 -6.40672,-4.37175 -4.8903,-3.98243 -6.2305,-10.5773 0.60102,-13.34714 0.79833,-12.58842 -15.65605,-12.6457 -1.16374,15.78239 2.19251,25.19056 4.13849,28.57305 7.19859,6.20895 7.82006,7.16169 27.35158,7.9813 9.13173,-1.07926 17.59171,-4.63615 20.72711,-19.62956 2.68526,-4.89597 5.78559,-90.47188 8.06036,-133.8775 -14.70203,-1.03869 0.42024,0.26653 -14.72852,-0.90053 -2.71136,45.17553 -6.32217,126.38911 -7.62237,135.30039 z"
         id="path3255"
         sodipodi:nodetypes="cccccccccc" />
      <rect
         transform="matrix(0.99912933,0.04172022,-0.09667028,0.99531646,0,0)"
         y="202.04047"
         x="14.660605"
         height="32.851082"
         width="33.357605"
         id="rect3834"
         style="fill:#ffffff;fill-opacity:1;stroke:#9cdaf1;stroke-width:3.48864721999999983;stroke-miterlimit:4;stroke-opacity:1;stroke-dasharray:none" />
      <rect
         style="fill:#ffffff;fill-opacity:1;stroke:#9cdaf1;stroke-width:3.48864722;stroke-miterlimit:4;stroke-opacity:1;stroke-dasharray:none"
         id="rect3885"
         width="33.357605"
         height="32.851082"
         x="-204.33144"
         y="211.21971"
         transform="matrix(-0.99912933,0.04172022,0.09667028,0.99531646,0,0)" />
      <path
         inkscape:connector-curvature="0"
         id="path2451"
         style="fill:#ffffff;fill-opacity:1;fill-rule:evenodd;stroke:#9cdaf1;stroke-width:3.48600005999999984;stroke-linecap:butt;stroke-linejoin:miter;stroke-miterlimit:4;stroke-opacity:1;stroke-dasharray:none;stroke-dashoffset:0;marker:none;visibility:visible;display:inline;overflow:visible;enable-background:accumulate"
         d="m 85.619409,249.52987 c -5.356969,10.38103 -14.398574,4.95039 -36.699898,0.86467 -15.740153,-43.71192 -13.662716,-36.20053 12.683123,-42.59752 49.061266,-11.61212 105.598336,1.9381 117.998696,8.96422 -0.89479,16.11286 -3.85307,46.46437 -36.71157,37.65931 -18.04431,-4.7974 -27.35237,-36.05173 -57.270351,-4.89068 z M 67.630766,275.85582 C 32.118657,275.21617 29.485318,265.78174 17.20519,227.66893 c -4.005857,-15.69229 1.636891,-27.20382 15.383253,-34.02358 59.188759,-22.20603 118.956507,-11.25901 154.472347,0.88308 14.05557,4.8053 21.87509,20.70651 11.39391,49.00861 -10.10283,22.58285 -23.59872,41.80382 -67.59683,30.80266 -7.33262,-2.21919 -13.11093,-6.46271 -20.156,-14.22275 l -6.03967,1.53955 c -8.187818,10.78662 -19.068853,17.65038 -37.031434,14.19932 z" />
    </g>
    <flowRoot
       xml:space="preserve"
       id="flowRoot3036"
       style="font-size:40px;font-style:normal;font-variant:normal;font-weight:normal;font-stretch:normal;line-height:125%;letter-spacing:0px;word-spacing:0px;fill:#000000;fill-opacity:1;stroke:none;font-family:Myriad Pro;-inkscape-font-specification:Myriad Pro"
       transform="translate(-79.012728,107.66628)"><flowRegion
         id="flowRegion3038"><rect
           id="rect3040"
           width="290.83475"
           height="41.75"
           x="50.241524"
           y="288.00424" /></flowRegion><flowPara
         id="flowPara3042"
         style="-inkscape-font-specification:Collegiate;font-family:Collegiate;font-weight:normal;font-style:normal;font-stretch:normal;font-variant:normal">hubdive</flowPara></flowRoot>    <flowRoot
       xml:space="preserve"
       id="flowRoot3067"
       style="font-size:40px;font-style:normal;font-variant:normal;font-weight:normal;font-stretch:normal;line-height:125%;letter-spacing:0px;word-spacing:0px;fill:#9cdaf1;fill-opacity:1;stroke:none;font-family:Collegiate;-inkscape-font-specification:Collegiate"
       transform="translate(-361.35594,373.02644)"><flowRegion
         id="flowRegion3069"><rect
           id="rect3071"
           width="179.73729"
           height="65.809319"
           x="409.00845"
           y="25.474586"
           style="font-style:normal;font-variant:normal;font-weight:normal;font-stretch:normal;font-family:Collegiate;-inkscape-font-specification:Collegiate;fill:#9cdaf1;fill-opacity:1" /></flowRegion><flowPara
         id="flowPara3073"><flowSpan
   style="fill:#000000;fill-opacity:1"
   id="flowSpan3843">hub</flowSpan>dive</flowPara></flowRoot>    <path
       sodipodi:type="arc"
       style="fill:#ffffff;fill-opacity:1;stroke:#9cdaf1;stroke-width:1.73599994;stroke-miterlimit:4;stroke-opacity:1;stroke-dasharray:none"
       id="path3883"
       sodipodi:cx="270.31354"
       sodipodi:cy="303.57202"
       sodipodi:rx="4.2457623"
       sodipodi:ry="4.2457623"
       d="m 274.5593,303.57202 a 4.2457623,4.2457623 0 1 1 -8.49152,0 4.2457623,4.2457623 0 1 1 8.49152,0 z"
       transform="matrix(0.78039021,0,0,0.78039021,-47.251597,171.61848)" />
    <path
       transform="matrix(0.78039021,0,0,0.78039021,-39.16527,178.21541)"
       d="m 274.5593,303.57202 a 4.2457623,4.2457623 0 1 1 -8.49152,0 4.2457623,4.2457623 0 1 1 8.49152,0 z"
       sodipodi:ry="4.2457623"
       sodipodi:rx="4.2457623"
       sodipodi:cy="303.57202"
       sodipodi:cx="270.31354"
       id="path3887"
       style="fill:#ffffff;fill-opacity:1;stroke:#9cdaf1;stroke-width:1.73599994;stroke-miterlimit:4;stroke-opacity:1;stroke-dasharray:none"
       sodipodi:type="arc" />
    <path
       sodipodi:type="arc"
       style="fill:#ffffff;fill-opacity:1;stroke:#9cdaf1;stroke-width:1.73599994;stroke-miterlimit:4;stroke-opacity:1;stroke-dasharray:none"
       id="path3889"
       sodipodi:cx="270.31354"
       sodipodi:cy="303.57202"
       sodipodi:rx="4.2457623"
       sodipodi:ry="4.2457623"
       d="m 274.5593,303.57202 a 4.2457623,4.2457623 0 1 1 -8.49152,0 4.2457623,4.2457623 0 1 1 8.49152,0 z"
       transform="matrix(0.78039021,0,0,0.78039021,-48.42109,183.39709)" />
  </g>
</svg>
